<svg width="36" height="36" viewBox="0 0 36 36" fill="none" xmlns="http://www.w3.org/2000/svg">
<g clip-path="url(#clip0_125_3226)">
<path d="M33.9742 21.2195C33.9742 21.8701 33.7107 22.4585 33.2848 22.8845C32.8581 23.3104 32.2697 23.5739 31.6198 23.5739H4.37868C3.07888 23.5739 2.02426 22.52 2.02426 21.2195C2.02426 20.8711 2.09964 20.541 2.23506 20.2439C2.3529 19.9856 2.51539 19.7528 2.71368 19.5545C3.14033 19.1285 3.72878 18.8651 4.37868 18.8651H31.6198C32.572 18.8651 33.3924 19.43 33.7635 20.2439C33.8988 20.541 33.9742 20.8711 33.9742 21.2195Z" fill="#884D00"/>
<path d="M33.7634 20.2439C33.6456 20.5015 33.4824 20.7349 33.2848 20.9326C32.8581 21.3585 32.2697 21.622 31.6198 21.622H4.37863C3.42723 21.622 2.60683 21.057 2.23502 20.2439C2.35286 19.9856 2.51528 19.7529 2.71363 19.5545C3.14029 19.1286 3.72873 18.8651 4.37863 18.8651H31.6198C32.5719 18.865 33.3923 19.4301 33.7634 20.2439Z" fill="#AA6100"/>
<path d="M36 25.4744C36 28.508 34.5956 30.7621 32.3253 32.2573C30.0544 33.7532 26.9177 34.4902 23.453 34.4902H12.5469C5.61776 34.4902 0 31.5416 0 25.4744C0 25.1363 0.0841641 24.8157 0.236391 24.5274C0.365203 24.2815 0.543023 24.0597 0.758953 23.8709C1.22738 23.4603 1.8758 23.2064 2.5908 23.2064H33.4093C34.4536 23.2064 35.3538 23.7479 35.7637 24.5274C35.9158 24.8158 36 25.1364 36 25.4744Z" fill="#FFA733"/>
<path d="M35.7642 24.5275C35.2754 26.5474 34.0502 28.1208 32.326 29.2567C30.055 30.7526 26.9183 31.4896 23.4537 31.4896H12.5476C6.45118 31.4896 1.37068 29.2077 0.23703 24.5275C0.365843 24.2816 0.543663 24.0598 0.759593 23.8709C1.22801 23.4604 1.87644 23.2064 2.59144 23.2064H33.4099C34.4543 23.2064 35.3544 23.748 35.7642 24.5275Z" fill="#FFB655"/>
<path d="M28.0111 17.8771L21.9206 23.9676C21.7676 24.1199 21.6044 24.2545 21.4317 24.3709C20.1422 25.2439 18.3755 25.1101 17.2331 23.9676L11.1425 17.8771H28.0111Z" fill="#EEBF00"/>
<path d="M28.0114 17.8771L21.9209 23.9676C21.768 24.1198 21.6047 24.2545 21.432 24.3708C20.9673 24.2128 20.5311 23.9485 20.1608 23.5775L14.4603 17.8771H28.0114Z" fill="#FFD422"/>
<path d="M35.3168 18.7268C35.3168 19.0459 35.2642 19.3722 35.15 19.6906C34.7028 20.9385 33.5055 21.4229 32.5724 20.7335L31.4534 19.9073C30.6725 19.3299 29.6764 19.5662 29.1114 20.4635L29.0638 20.5389C28.5215 21.401 27.5759 21.6571 26.8038 21.1521L24.2979 19.5135C23.7198 19.1359 23.0267 19.1768 22.4793 19.6226L20.4711 21.2561C19.8944 21.7252 19.1597 21.7449 18.5676 21.3065L16.2768 19.6086C15.6913 19.1747 14.9654 19.1885 14.3908 19.6452L12.3051 21.3015C11.7452 21.7457 11.0412 21.7713 10.4623 21.3695L7.76172 19.493C7.23036 19.1242 6.59003 19.1139 6.05136 19.466L3.53235 21.1134C1.8549 21.3293 1.03893 20.0976 1.03893 20.0976C0.637161 19.3994 0.596872 18.5717 0.814278 17.8771C1.07261 17.0472 1.69839 16.4076 2.51218 16.4076H33.4895C34.2872 16.4076 34.9246 17.0377 35.1867 17.8735C35.2715 18.1413 35.3168 18.4304 35.3168 18.7268Z" fill="#6DC82A"/>
<path d="M35.1869 17.8734C35.176 17.91 35.1635 17.9458 35.1504 17.9825C34.7032 19.231 33.5059 19.7155 32.5728 19.0261L31.4538 18.1991C30.6729 17.6224 29.6768 17.8588 29.1118 18.7554L29.0642 18.8314C28.5219 19.6935 27.5763 19.9497 26.8042 19.4447L24.2983 17.8061C23.7202 17.4277 23.0271 17.4694 22.4797 17.9151L20.4715 19.5486C19.8948 20.0177 19.16 20.0368 18.5679 19.5984L16.2772 17.9005C15.6917 17.4665 14.9658 17.4811 14.3912 17.9371L12.3054 19.594C11.7455 20.0375 11.0415 20.0638 10.4626 19.662L7.76204 17.7855C7.23069 17.416 6.59036 17.4057 6.05169 17.7585L3.53268 19.4051C1.85523 19.6217 1.03925 18.3893 1.03925 18.3893C0.944825 18.2246 0.870223 18.0526 0.814606 17.877C1.07293 17.0471 1.69871 16.4074 2.51251 16.4074H33.4898C34.2874 16.4075 34.9249 17.0376 35.1869 17.8734Z" fill="#7ED63E"/>
<path d="M34.6909 14.9013C34.696 15.145 34.6638 15.3799 34.6009 15.6017C34.3177 16.5883 33.4087 17.3099 32.3314 17.3099C28.1013 17.3099 16.8343 17.2147 15.135 17.2711C15.097 17.2725 15.0589 17.274 15.0216 17.2747C12.8758 17.3559 12.3869 17.6999 12.3869 18.8438V23.0293C12.3869 23.2445 12.2998 23.4399 12.1586 23.5811C12.0174 23.7224 11.8227 23.8094 11.6075 23.8094C11.1764 23.8094 10.8273 24.1585 10.8273 24.5896V26.4127C10.8273 26.5978 10.8054 26.7772 10.7629 26.9499C10.5222 27.9467 9.62267 28.6866 8.54246 28.6866H8.48466C7.25658 28.6866 6.26272 27.6891 6.26637 26.461L6.27664 23.1611C6.27734 22.9079 6.38056 22.678 6.54671 22.5126C6.71356 22.3465 6.94264 22.2441 7.19661 22.2441C7.70454 22.2441 8.11658 21.832 8.11658 21.3241V18.8438C8.11658 17.9963 7.43011 17.3099 6.58264 17.3099H3.7122C2.42049 17.3099 1.33367 16.2904 1.3073 14.9987C1.28093 13.6733 2.348 12.5901 3.66755 12.5901H32.2846C33.577 12.5901 34.6653 13.6096 34.6909 14.9013Z" fill="#FF3501"/>
<path d="M34.6923 14.9013C34.6974 15.145 34.6652 15.3799 34.6023 15.6017C30.1241 15.5973 19.4236 15.5088 17.7711 15.5629C15.5287 15.6368 15.023 15.9727 15.023 17.1364V17.2747C12.8772 17.3559 12.3883 17.6999 12.3883 18.8438V23.0293C12.3883 23.2445 12.3012 23.4399 12.16 23.5811C12.0188 23.7224 11.8241 23.8094 11.6089 23.8094C11.1778 23.8094 10.8287 24.1585 10.8287 24.5896V26.4127C10.8287 26.5978 10.8068 26.7772 10.7643 26.9499C9.70604 26.7794 8.89879 25.8594 8.90244 24.7528L8.91271 21.4536C8.91341 21.1996 9.01663 20.9706 9.18278 20.8052C9.34963 20.639 9.57871 20.5366 9.83268 20.5366C10.3406 20.5366 10.7526 20.1246 10.7526 19.6166V17.1363C10.7526 16.2889 10.0662 15.6024 9.21871 15.6024H6.34827C5.05656 15.6024 3.96974 14.5829 3.94337 13.2912C3.93824 13.0475 3.97044 12.8126 4.03415 12.5901H32.286C33.5784 12.5901 34.6667 13.6096 34.6923 14.9013Z" fill="#FF5023"/>
<path d="M21.1903 10.1911L15.9685 15.4151C15.4452 15.9384 14.8282 16.3109 14.171 16.5312C12.5506 17.0786 10.6888 16.7061 9.3993 15.4151L4.17535 10.1911H21.1903Z" fill="#EEBF00"/>
<path d="M21.19 10.1911L15.9682 15.4151C15.4449 15.9384 14.8279 16.3109 14.1707 16.5312C13.5142 16.3109 12.8973 15.9384 12.3747 15.4151L7.1507 10.1911H21.19Z" fill="#FFD422"/>
<path d="M36 10.9259C36 10.9647 35.9985 11.0028 35.9963 11.0408C35.9678 11.5319 35.757 11.9746 35.4306 12.3011C35.0786 12.6531 34.5926 12.8705 34.0554 12.8705H1.94456C0.870891 12.8704 0 11.9995 0 10.9259C0 8.59569 1.08021 6.84139 2.71153 5.52184C4.03545 4.45041 5.72309 3.66509 7.48983 3.08916C12.4328 1.47985 18 1.5098 18 1.5098C18 1.5098 36 1.41249 36 10.9259Z" fill="#FFA733"/>
<path d="M36.0009 10.9259C36.0009 10.9647 35.9994 11.0028 35.9972 11.0408H5.89741C4.82381 11.0408 3.95285 10.1699 3.95285 9.09624C3.95285 6.76602 5.03306 5.01172 6.66438 3.69223C6.92637 3.47996 7.20227 3.2795 7.49062 3.08916C12.4337 1.47985 18.0009 1.5098 18.0009 1.5098C18.0009 1.5098 36.0009 1.41249 36.0009 10.9259Z" fill="#FFB655"/>
<path d="M27.6745 4.91173C27.9866 5.24206 27.9718 5.76286 27.6416 6.07505C27.3112 6.38717 26.7904 6.3724 26.4783 6.04214C26.1662 5.71189 25.5917 4.56741 25.922 4.25522C26.2523 3.94304 27.3623 4.58133 27.6745 4.91173Z" fill="#FFF5CC"/>
<path d="M23.314 8.97852C23.4769 9.40279 23.2651 9.8788 22.8408 10.0417C22.4166 10.2046 21.9405 9.99278 21.7776 9.56851C21.6147 9.14425 21.519 7.8673 21.9432 7.70438C22.3675 7.54154 23.1511 8.55425 23.314 8.97852Z" fill="#FFF5CC"/>
<path d="M18.823 5.59403C18.823 6.04853 18.4545 6.4169 18.0001 6.4169C17.5456 6.4169 17.1772 6.04846 17.1772 5.59403C17.1772 5.13953 17.5457 3.91321 18.0001 3.91321C18.4546 3.91314 18.823 5.13953 18.823 5.59403Z" fill="#FFF5CC"/>
<path d="M14.2984 9.49417C14.1847 9.93419 13.7359 10.1988 13.2958 10.0851C12.8558 9.97152 12.5912 9.52265 12.7049 9.08263C12.8185 8.64262 13.4819 7.54736 13.922 7.66099C14.362 7.77461 14.412 9.05423 14.2984 9.49417Z" fill="#FFF5CC"/>
<path d="M9.7714 5.90983C9.57326 6.31876 9.08114 6.48976 8.67206 6.29162C8.26313 6.09348 8.09213 5.60137 8.29027 5.19229C8.48841 4.78335 9.35459 3.84017 9.76367 4.03839C10.1727 4.2366 9.96954 5.50089 9.7714 5.90983Z" fill="#FFF5CC"/>
</g>
<defs>
<clipPath id="clip0_125_3226">
<rect width="36" height="36" fill="white"/>
</clipPath>
</defs>
</svg>
