<svg width="25" height="23" viewBox="0 0 25 23" fill="none" xmlns="http://www.w3.org/2000/svg">
<path d="M23.7952 4.27354H5.03011L4.75117 1.1661C4.70555 0.657929 4.27966 0.268555 3.76948 0.268555H1.76689C1.22254 0.268555 0.78125 0.70984 0.78125 1.25419C0.78125 1.79855 1.22254 2.23983 1.76689 2.23983H2.86837C3.47031 8.94603 1.9146 -8.387 4.00199 14.8696C4.08244 15.7798 4.57427 16.7676 5.42155 17.4388C3.89395 19.3896 5.28971 22.2655 7.7746 22.2655C9.83703 22.2655 11.2917 20.2086 10.5844 18.2604H15.979C15.2726 20.2061 16.7241 22.2655 18.7888 22.2655C20.4365 22.2655 21.777 20.925 21.777 19.2773C21.777 17.6296 20.4365 16.2891 18.7888 16.2891H7.78126C7.03255 16.2891 6.38011 15.8374 6.0985 15.1793L21.8503 14.2535C22.2804 14.2283 22.6442 13.9266 22.7487 13.5087L24.7514 5.49822C24.9067 4.87708 24.4365 4.27354 23.7952 4.27354ZM7.7746 20.2943C7.21391 20.2943 6.7577 19.8381 6.7577 19.2773C6.7577 18.7166 7.21391 18.2604 7.7746 18.2604C8.33533 18.2604 8.79154 18.7166 8.79154 19.2773C8.79154 19.8381 8.33533 20.2943 7.7746 20.2943ZM18.7887 20.2943C18.228 20.2943 17.7718 19.8381 17.7718 19.2773C17.7718 18.7166 18.228 18.2604 18.7887 18.2604C19.3495 18.2604 19.8057 18.7166 19.8057 19.2773C19.8057 19.8381 19.3495 20.2943 18.7887 20.2943ZM21.0119 12.3281L5.83317 13.2201L5.20705 6.24477H22.5328L21.0119 12.3281Z" fill="#5F5E5E"/>
</svg>
