<svg xmlns="http://www.w3.org/2000/svg" width="36" height="36" fill="none" viewBox="0 0 36 36"><g clip-path="url(#clip0_125_3194)"><path fill="url(#paint0_linear_125_3194)" d="M7.40767 23.995L9.75452 24.0174C10.2822 24.0224 10.7142 23.5988 10.7192 23.071L10.8767 1.91956C10.8834 1.20796 10.1379 0.738831 9.49934 1.05302L7.47303 2.04987C6.94573 2.30928 6.60952 2.84363 6.60395 3.43121L6.46129 23.0304C6.45627 23.558 6.87995 23.99 7.40767 23.995Z"/><path fill="url(#paint1_linear_125_3194)" d="M10.7735 15.8004L10.7195 23.0713C10.7139 23.599 10.2825 24.0225 9.75481 24.0177L7.40747 23.9947C6.87983 23.9899 6.4563 23.5576 6.4611 23.0299L6.60411 3.43112C6.60806 2.9694 6.81708 2.54114 7.16112 2.25427L9.73653 15.0391C9.83429 15.5271 10.2888 15.8521 10.7735 15.8004Z"/><path fill="url(#paint2_linear_125_3194)" d="M16.7679 23.995L14.421 24.0174C13.8933 24.0224 13.4614 23.5988 13.4564 23.071L13.2989 1.91956C13.2921 1.20796 14.0377 0.738831 14.6762 1.05302L16.7025 2.04987C17.2298 2.30928 17.566 2.84363 17.5716 3.43121L17.7142 23.0304C17.7193 23.558 17.2956 23.99 16.7679 23.995Z"/><path fill="url(#paint3_linear_125_3194)" d="M24.9237 23.0414L22.5768 23.0638C22.0491 23.0688 21.6172 22.6452 21.6122 22.1175L21.4547 0.965989C21.4479 0.254318 22.1935 -0.21474 22.832 0.0993773L24.8583 1.09622C25.3856 1.35564 25.7218 1.88999 25.7274 2.47756L25.87 22.0767C25.8751 22.6044 25.4514 23.0364 24.9237 23.0414Z"/><path fill="url(#paint4_linear_125_3194)" d="M28.6925 21.3597L26.3572 21.5939C25.8321 21.6466 25.3637 21.2637 25.311 20.7385L23.6657 4.33623C23.5947 3.62816 24.2949 3.09367 24.9592 3.34884L27.0672 4.15863C27.6158 4.36934 27.9989 4.87115 28.0575 5.45583L29.5479 20.3135C29.6006 20.8386 29.2176 21.3071 28.6925 21.3597Z"/><path fill="url(#paint5_linear_125_3194)" d="M14.3496 23.5397L12.0143 23.7739C11.4892 23.8266 11.0174 23.4095 10.9605 22.8424L9.18342 5.12654C9.1067 4.36172 9.80319 3.79045 10.47 4.07118L12.5862 4.96193C13.1369 5.19374 13.5242 5.73833 13.5876 6.36988L15.1973 22.4173C15.2542 22.9845 14.8747 23.487 14.3496 23.5397Z"/><path fill="url(#paint6_linear_125_3194)" d="M27.2035 23.613L29.5125 24.0339C30.0316 24.1286 30.5293 23.7844 30.6239 23.2652L34.3737 2.44819C34.5014 1.7481 33.8464 1.15911 33.1637 1.36015L30.9974 1.99812C30.4337 2.16415 30.0116 2.63356 29.9062 3.21168L26.4349 22.5015C26.3401 23.0208 26.6843 23.5184 27.2035 23.613Z"/><path fill="url(#paint7_linear_125_3194)" d="M30.9967 1.99809C30.433 2.16411 30.0109 2.63352 29.9055 3.21164L26.4342 22.5015C26.3395 23.0207 26.6837 23.5183 27.2029 23.613L27.6323 23.6913C27.7598 23.5404 27.8531 23.3497 27.8926 23.1333L31.7451 1.77771L30.9967 1.99809Z"/><path fill="url(#paint8_linear_125_3194)" d="M19.6633 24.4539L22.0007 24.2393C22.5263 24.191 22.9139 23.7192 22.8664 23.1854L20.9171 1.79616C20.853 1.07637 20.0645 0.677763 19.4603 1.05979L17.5433 2.272C17.0444 2.58746 16.7632 3.16134 16.816 3.75569L18.6255 23.5749C18.6731 24.1086 19.1377 24.5021 19.6633 24.4539Z"/><path fill="url(#paint9_linear_125_3194)" d="M17.5433 2.27194C17.0444 2.5874 16.7632 3.16128 16.816 3.75564L18.6255 23.5748C18.673 24.1086 19.1376 24.5022 19.6632 24.454L20.098 24.414C20.1805 24.2318 20.2194 24.0198 20.1996 23.7973L18.2056 1.85321L17.5433 2.27194Z"/><path fill="url(#paint10_linear_125_3194)" d="M30.462 14.9539C30.4101 14.8822 30.3476 14.8155 30.2726 14.7572L22.6946 9.05031C21.132 7.82998 18.972 8.62523 18.4963 10.55L17.6696 13.1125L18.6248 23.5748C18.6723 24.1086 19.1369 24.5022 19.6625 24.4539L22 24.2393C22.5256 24.191 22.9131 23.7192 22.8656 23.1854L22.8543 23.0612L24.9218 23.0414C25.4496 23.0364 25.8733 22.6045 25.8682 22.0767L25.8641 21.5112C26.0134 21.5797 26.1818 21.6115 26.357 21.5939L26.6015 21.5694L26.4338 22.5015C26.3391 23.0207 26.6833 23.5184 27.2025 23.613L29.5114 24.0339C30.0306 24.1286 30.5282 23.7844 30.6229 23.2652L31.8669 16.3589L30.462 14.9539Z"/><path fill="url(#paint11_linear_125_3194)" d="M14.9316 9.05531C14.7234 8.70562 10.6806 9.83468 10.5645 10.4107L7.8266 23.9989L9.75359 24.0173C10.2813 24.0223 10.7132 23.5987 10.7182 23.071L10.7365 20.6216L10.9592 22.8423C11.0161 23.4095 11.4879 23.8265 12.013 23.7739L13.6293 23.6117C13.8041 23.8595 14.0934 24.0204 14.4195 24.0173L16.7663 23.9949C17.294 23.9899 17.7178 23.5579 17.7127 23.0302L18.6251 23.5747C18.6726 24.1085 19.1372 24.5021 19.6628 24.4539L22.0003 24.2392C22.5259 24.1909 22.9134 23.7191 22.8659 23.1853L22.8546 23.0611L24.9222 23.0413C25.4499 23.0363 25.8736 22.6044 25.8685 22.0767L25.8644 21.5111C26.0137 21.5796 26.1821 21.6114 26.3573 21.5938L27.3687 21.4924L14.9316 9.05531Z"/><path fill="url(#paint12_linear_125_3194)" d="M30.2735 14.7572L22.6955 8.83858C21.133 7.61825 18.8318 8.4135 18.3561 10.3382L15.4186 22.2259C15.2907 22.7385 15.6021 23.2566 16.1139 23.3845L18.3913 23.9527C18.9031 24.0806 19.4219 23.7691 19.5499 23.2574L21.9274 13.6439L26.4345 17.1657C26.8986 17.5264 27.5255 17.5956 28.0564 17.3428L30.097 16.375C30.74 16.0699 30.8354 15.1942 30.2735 14.7572Z"/><path fill="url(#paint13_linear_125_3194)" d="M21.9273 13.6439L19.5498 23.2574C19.4219 23.7691 18.903 24.0806 18.3912 23.9527L16.1138 23.3845C15.602 23.2566 15.2905 22.7385 15.4185 22.2259L18.249 10.7705L21.9273 13.6439Z"/><path fill="url(#paint14_linear_125_3194)" d="M8.31376 23.5348L6.01301 23.9984C5.49566 24.1026 4.99174 23.7677 4.88748 23.2504L1.63145 7.09059C1.49091 6.39297 2.13489 5.79198 2.82115 5.98038L4.99886 6.57819C5.56555 6.73377 5.99628 7.19527 6.11232 7.77134L9.06178 22.4094C9.16597 22.9267 8.8311 23.4306 8.31376 23.5348Z"/><path fill="url(#paint15_linear_125_3194)" d="M8.31376 23.5348L6.01301 23.9984C5.49566 24.1026 4.99174 23.7677 4.88748 23.2504L1.63145 7.09059C1.49091 6.39297 2.13489 5.79198 2.82115 5.98038L4.99886 6.57819C5.56555 6.73377 5.99628 7.19527 6.11232 7.77134L9.06178 22.4094C9.16597 22.9267 8.8311 23.4306 8.31376 23.5348Z"/><path fill="url(#paint16_linear_125_3194)" d="M8.36379 26.1743L10.6645 26.6379C11.1819 26.7421 11.6858 26.4072 11.7901 25.8898L15.0462 9.72999C15.1867 9.03237 14.5427 8.43138 13.8565 8.61978L11.6788 9.21759C11.1121 9.37317 10.6813 9.83468 10.5653 10.4107L7.61584 25.0488C7.51151 25.5662 7.84645 26.0701 8.36379 26.1743Z"/><path fill="url(#paint17_linear_125_3194)" d="M3.00201 13.8884L4.88841 23.2504C4.99267 23.7678 5.49653 24.1027 6.01394 23.9985L6.87357 23.8252C7.02547 23.9306 7.20943 23.9931 7.4082 23.995L7.82813 23.999L7.61658 25.0489C7.51232 25.5662 7.84726 26.0702 8.3646 26.1743L10.6654 26.6379C11.1827 26.7422 11.6866 26.4073 11.7909 25.8899L12.2214 23.7531L13.6309 23.6117C13.8057 23.8595 14.095 24.0204 14.4211 24.0173L16.7679 23.9949C17.029 23.9924 17.2644 23.8852 17.4353 23.7138L18.3923 23.9525C18.5134 23.9828 18.6348 23.9877 18.7515 23.9719C18.9319 24.2891 19.2816 24.489 19.6645 24.4538L22.002 24.2392C22.5276 24.1909 22.9151 23.7191 22.8676 23.1853L22.8563 23.061L24.9238 23.0413C25.4515 23.0363 25.8753 22.6043 25.8702 22.0766L25.8661 21.5111C26.0153 21.5796 26.1838 21.6114 26.359 21.5938L26.6035 21.5693L26.4358 22.5014C26.3411 23.0206 26.6853 23.5182 27.2045 23.6129L29.5134 24.0338C30.0326 24.1285 30.5302 23.7843 30.6249 23.2651L32.3139 13.8883H3.00201V13.8884Z"/><path fill="url(#paint18_linear_125_3194)" d="M31.3125 18.3533C29.7372 18.3533 28.1957 18.7714 26.8146 19.5291C24.6332 20.7259 21.4229 21.4822 17.8433 21.4822C14.2637 21.4822 11.0536 20.7259 8.87207 19.5291C7.49094 18.7714 5.94951 18.3533 4.37419 18.3533C3.8764 18.3533 3.50991 18.8191 3.62687 19.3029L7.10956 33.701C7.45558 35.1317 8.78652 36.1028 10.2542 35.9914C15.0891 35.6245 20.5975 35.6245 25.4324 35.9914C26.9 36.1028 28.231 35.1317 28.577 33.701L32.0597 19.3029C32.1768 18.819 31.8102 18.3533 31.3125 18.3533Z"/><path fill="url(#paint19_linear_125_3194)" d="M25.5765 25.583C25.4578 25.3948 25.2554 25.2609 25.0121 25.2436C20.4205 24.9178 15.2657 24.9178 10.674 25.2436C10.2235 25.2756 9.91062 25.7056 10.0169 26.1444C10.2278 27.0151 10.5603 28.3879 10.7995 29.3754C10.8787 29.7019 11.0628 29.9792 11.3091 30.1782L16.8516 35.7206C19.7649 35.6942 22.7057 35.7843 25.4322 35.9912C26.8999 36.1026 28.2308 35.1315 28.5768 33.7008L29.5736 29.58L25.5765 25.583Z"/><path fill="url(#paint20_linear_125_3194)" d="M10.0173 26.1444C10.2282 27.0151 10.5607 28.3879 10.7999 29.3754C10.9677 30.0679 11.6042 30.5434 12.3157 30.5058C15.9168 30.3152 19.77 30.3152 23.3711 30.5058C24.0826 30.5434 24.7192 30.0679 24.8869 29.3754C25.1261 28.3878 25.4586 27.0151 25.6695 26.1444C25.7758 25.7056 25.4629 25.2756 25.0125 25.2436C20.4208 24.9178 15.2659 24.9178 10.6743 25.2436C10.2239 25.2756 9.91104 25.7056 10.0173 26.1444Z"/><path fill="url(#paint21_linear_125_3194)" d="M6.46088 31.02L7.1093 33.7009C7.45532 35.1316 8.78627 36.1027 10.2539 35.9913C15.0888 35.6244 20.5972 35.6244 25.4321 35.9913C26.8998 36.1027 28.2307 35.1316 28.5767 33.7009L29.2252 31.02H6.46088Z"/></g><defs><linearGradient id="paint0_linear_125_3194" x1="6.492" x2="14.28" y1="11.542" y2="14.879" gradientUnits="userSpaceOnUse"><stop stop-color="#FFD945"/><stop offset=".304" stop-color="#FFCD3E"/><stop offset=".856" stop-color="#FFAD2B"/><stop offset="1" stop-color="#FFA325"/></linearGradient><linearGradient id="paint1_linear_125_3194" x1="9.015" x2="4.459" y1="12.995" y2="14.32" gradientUnits="userSpaceOnUse"><stop stop-color="#F82814" stop-opacity="0"/><stop offset="1" stop-color="#C0272D"/></linearGradient><linearGradient id="paint2_linear_125_3194" x1="20.95" x2="17.136" y1="7.258" y2="10.913" gradientUnits="userSpaceOnUse"><stop stop-color="#FFD945"/><stop offset=".304" stop-color="#FFCD3E"/><stop offset=".856" stop-color="#FFAD2B"/><stop offset="1" stop-color="#FFA325"/></linearGradient><linearGradient id="paint3_linear_125_3194" x1="20.866" x2="23.885" y1="11.233" y2="11.789" gradientUnits="userSpaceOnUse"><stop stop-color="#FFD945"/><stop offset=".304" stop-color="#FFCD3E"/><stop offset=".856" stop-color="#FFAD2B"/><stop offset="1" stop-color="#FFA325"/></linearGradient><linearGradient id="paint4_linear_125_3194" x1="24.916" x2="27.511" y1="12.409" y2="12.569" gradientUnits="userSpaceOnUse"><stop stop-color="#FFD945"/><stop offset=".304" stop-color="#FFCD3E"/><stop offset=".856" stop-color="#FFAD2B"/><stop offset="1" stop-color="#FFA325"/></linearGradient><linearGradient id="paint5_linear_125_3194" x1="14.543" x2="9.856" y1="12.649" y2="14.627" gradientUnits="userSpaceOnUse"><stop stop-color="#FFD945"/><stop offset=".304" stop-color="#FFCD3E"/><stop offset=".856" stop-color="#FFAD2B"/><stop offset="1" stop-color="#FFA325"/></linearGradient><linearGradient id="paint6_linear_125_3194" x1="27.355" x2="34.466" y1="10.486" y2="15.1" gradientUnits="userSpaceOnUse"><stop stop-color="#FFD945"/><stop offset=".304" stop-color="#FFCD3E"/><stop offset=".856" stop-color="#FFAD2B"/><stop offset="1" stop-color="#FFA325"/></linearGradient><linearGradient id="paint7_linear_125_3194" x1="27.922" x2="34.544" y1="8.577" y2="29.82" gradientUnits="userSpaceOnUse"><stop stop-color="#F82814" stop-opacity="0"/><stop offset="1" stop-color="#C0272D"/></linearGradient><linearGradient id="paint8_linear_125_3194" x1="17.502" x2="25.649" y1="11.963" y2="14.526" gradientUnits="userSpaceOnUse"><stop stop-color="#FFD945"/><stop offset=".304" stop-color="#FFCD3E"/><stop offset=".856" stop-color="#FFAD2B"/><stop offset="1" stop-color="#FFA325"/></linearGradient><linearGradient id="paint9_linear_125_3194" x1="13.536" x2="25.766" y1="5.261" y2="24.241" gradientUnits="userSpaceOnUse"><stop stop-color="#F82814" stop-opacity="0"/><stop offset="1" stop-color="#C0272D"/></linearGradient><linearGradient id="paint10_linear_125_3194" x1="26.409" x2="20.392" y1="23.398" y2="5.872" gradientUnits="userSpaceOnUse"><stop stop-color="#F82814" stop-opacity="0"/><stop offset="1" stop-color="#C0272D"/></linearGradient><linearGradient id="paint11_linear_125_3194" x1="17.726" x2="3.073" y1="19.222" y2="12.98" gradientUnits="userSpaceOnUse"><stop stop-color="#F82814" stop-opacity="0"/><stop offset="1" stop-color="#C0272D"/></linearGradient><linearGradient id="paint12_linear_125_3194" x1="19.8" x2="28.739" y1="16.237" y2="20.068" gradientUnits="userSpaceOnUse"><stop stop-color="#FFD945"/><stop offset=".304" stop-color="#FFCD3E"/><stop offset=".856" stop-color="#FFAD2B"/><stop offset="1" stop-color="#FFA325"/></linearGradient><linearGradient id="paint13_linear_125_3194" x1="18.743" x2="25.497" y1="17.461" y2="19.05" gradientUnits="userSpaceOnUse"><stop stop-color="#F82814" stop-opacity="0"/><stop offset="1" stop-color="#C0272D"/></linearGradient><linearGradient id="paint14_linear_125_3194" x1="2.211" x2="10.365" y1="14.277" y2="16.925" gradientUnits="userSpaceOnUse"><stop stop-color="#FFD945"/><stop offset=".304" stop-color="#FFCD3E"/><stop offset=".856" stop-color="#FFAD2B"/><stop offset="1" stop-color="#FFA325"/></linearGradient><linearGradient id="paint15_linear_125_3194" x1="2.211" x2="10.365" y1="14.277" y2="16.925" gradientUnits="userSpaceOnUse"><stop stop-color="#FFD945"/><stop offset=".304" stop-color="#FFCD3E"/><stop offset=".856" stop-color="#FFAD2B"/><stop offset="1" stop-color="#FFA325"/></linearGradient><linearGradient id="paint16_linear_125_3194" x1="8.711" x2="13.399" y1="16.146" y2="18.371" gradientUnits="userSpaceOnUse"><stop stop-color="#FFD945"/><stop offset=".304" stop-color="#FFCD3E"/><stop offset=".856" stop-color="#FFAD2B"/><stop offset="1" stop-color="#FFA325"/></linearGradient><linearGradient id="paint17_linear_125_3194" x1="17.658" x2="17.658" y1="16.002" y2="24.982" gradientUnits="userSpaceOnUse"><stop stop-color="#F82814" stop-opacity="0"/><stop offset=".266" stop-color="#EE2818" stop-opacity=".266"/><stop offset=".712" stop-color="#D42724" stop-opacity=".712"/><stop offset="1" stop-color="#C0272D"/></linearGradient><linearGradient id="paint18_linear_125_3194" x1="8.933" x2="31.183" y1="22.285" y2="31.741" gradientUnits="userSpaceOnUse"><stop stop-color="#FF6359"/><stop offset=".224" stop-color="#FE5B50"/><stop offset=".595" stop-color="#FC4637"/><stop offset="1" stop-color="#F82814"/></linearGradient><linearGradient id="paint19_linear_125_3194" x1="22.013" x2="18.993" y1="37.549" y2="24.358" gradientUnits="userSpaceOnUse"><stop stop-color="#F82814" stop-opacity="0"/><stop offset="1" stop-color="#C0272D"/></linearGradient><linearGradient id="paint20_linear_125_3194" x1="17.009" x2="20.227" y1="24.787" y2="32.177" gradientUnits="userSpaceOnUse"><stop stop-color="#FFD945"/><stop offset=".304" stop-color="#FFCD3E"/><stop offset=".856" stop-color="#FFAD2B"/><stop offset="1" stop-color="#FFA325"/></linearGradient><linearGradient id="paint21_linear_125_3194" x1="17.843" x2="17.843" y1="32.768" y2="37.41" gradientUnits="userSpaceOnUse"><stop stop-color="#F82814" stop-opacity="0"/><stop offset="1" stop-color="#C0272D"/></linearGradient><clipPath id="clip0_125_3194"><rect width="36" height="36" fill="#fff"/></clipPath></defs></svg>