<svg width="65" height="65" viewBox="0 0 65 65" fill="none" xmlns="http://www.w3.org/2000/svg">
<g clip-path="url(#clip0_118_355)">
<path d="M59.0079 45.5695C58.1 45.0709 56.9602 45.4025 56.4618 46.31C55.9632 47.2177 56.2947 48.3577 57.2023 48.8562C59.4358 50.0832 60.7168 51.4434 60.7168 52.5882C60.7168 53.9883 58.733 56.1583 53.1652 58.0499C47.6645 59.9189 40.3137 60.948 32.4668 60.948C24.6199 60.948 17.269 59.9189 11.7684 58.0499C6.20055 56.1584 4.2168 53.9883 4.2168 52.5882C4.2168 51.4434 5.4978 50.0832 7.7313 48.856C8.63892 48.3575 8.97042 47.2175 8.4718 46.3099C7.97317 45.4024 6.83355 45.0708 5.92567 45.5694C3.43542 46.9375 0.466797 49.2658 0.466797 52.5882C0.466797 55.1349 2.2183 58.7659 10.562 61.6006C16.441 63.598 24.2203 64.698 32.4668 64.698C40.7133 64.698 48.4925 63.598 54.3715 61.6006C62.7153 58.7659 64.4668 55.1349 64.4668 52.5882C64.4668 49.2658 61.4982 46.9375 59.0079 45.5695Z" fill="#FE5857"/>
<path d="M18.3113 55.3392C22.1176 56.4144 27.145 57.0067 32.4673 57.0067C37.7897 57.0067 42.8171 56.4145 46.6233 55.3392C51.28 54.0238 53.6411 52.1195 53.6411 49.6798C53.6411 47.2399 51.28 45.3359 46.6233 44.0205C45.5896 43.7285 44.4653 43.4724 43.2701 43.2539C42.621 44.3754 41.9408 45.5298 41.2297 46.7174C42.5527 46.9159 43.7948 47.1593 44.9228 47.4467C48.3498 48.3195 49.6018 49.3022 49.8592 49.6799C49.6017 50.0578 48.35 51.0404 44.923 51.9132C41.6793 52.7393 37.5061 53.2105 33.1107 53.2527C32.8978 53.2684 32.6833 53.2773 32.4673 53.2773C32.2512 53.2773 32.0368 53.2684 31.8238 53.2527C27.4285 53.2105 23.2552 52.7394 20.0116 51.9132C16.5846 51.0404 15.3327 50.0577 15.0753 49.6799C15.3327 49.3022 16.5847 48.3195 20.0117 47.4467C21.1397 47.1594 22.3818 46.9159 23.705 46.7174C22.9938 45.5299 22.3137 44.3753 21.6646 43.2539C20.4693 43.4725 19.345 43.7285 18.3113 44.0205C13.6547 45.3359 11.2936 47.24 11.2936 49.6798C11.2936 52.1195 13.6547 54.0237 18.3113 55.3392Z" fill="#FE5857"/>
<path d="M32.4663 49.5272C34.1354 49.5272 35.6516 48.6768 36.5223 47.2521C42.6236 37.27 49.8963 24.1142 49.8963 18.1279C49.8963 8.517 42.0773 0.697998 32.4663 0.697998C22.8553 0.697998 15.0363 8.517 15.0363 18.1279C15.0363 24.1142 22.3092 37.27 28.4103 47.2521C29.2811 48.6768 30.7973 49.5272 32.4663 49.5272ZM25.4604 16.9311C25.4604 13.0682 28.6033 9.9255 32.4663 9.9255C36.3293 9.9255 39.4722 13.0682 39.4722 16.9311C39.4722 20.7941 36.3293 23.9369 32.4663 23.9369C28.6033 23.9369 25.4604 20.7942 25.4604 16.9311Z" fill="#D80027"/>
</g>
<defs>
<clipPath id="clip0_118_355">
<rect width="64" height="64" fill="white" transform="translate(0.466797 0.697998)"/>
</clipPath>
</defs>
</svg>
