<svg xmlns="http://www.w3.org/2000/svg" width="113" height="40" fill="none" viewBox="0 0 113 40"><path fill="#292929" d="M54.9933 25.416V10.464L53.1213 10.248V8.808H66.0093L66.2733 12.408L64.7853 12.432L64.1373 10.56L57.9693 10.368V17.04L62.4813 16.92L63.0573 15.192H64.4253V20.472H62.8893L62.5053 18.672L57.9693 18.6V25.344L61.4733 25.608V27H53.0973V25.752L54.9933 25.416ZM67.8607 15.504V14.4L71.4127 13.608L71.8927 13.824V21.912C71.8927 23.16 72.0447 24.056 72.3487 24.6C72.6687 25.128 73.2687 25.392 74.1487 25.392C74.6607 25.392 75.1887 25.28 75.7327 25.056C76.2927 24.832 76.7007 24.6 76.9567 24.36V16.152L75.4927 15.624V14.424L79.4047 13.608L79.8367 13.8V25.776H81.2287V26.832C80.9887 26.976 80.5967 27.104 80.0527 27.216C79.5087 27.328 79.0367 27.384 78.6367 27.384C78.2047 27.384 77.8607 27.288 77.6047 27.096C77.3647 26.92 77.2447 26.648 77.2447 26.28V25.488C76.6847 26.032 76.0287 26.464 75.2767 26.784C74.5247 27.104 73.8047 27.264 73.1167 27.264C71.9647 27.264 71.0927 27.056 70.5007 26.64C69.9247 26.208 69.5407 25.616 69.3487 24.864C69.1567 24.112 69.0527 23.12 69.0367 21.888V16.032L67.8607 15.504Z"/><path fill="#FDC913" d="M95.0934 8.232V25.776H96.7014V26.808C96.4134 26.968 96.0054 27.104 95.4774 27.216C94.9494 27.328 94.4054 27.384 93.8454 27.384C93.3334 27.384 92.9654 27.288 92.7414 27.096C92.5174 26.904 92.3734 26.568 92.3094 26.088C91.9574 26.408 91.4294 26.696 90.7254 26.952C90.0374 27.192 89.2774 27.312 88.4454 27.312C87.4694 27.312 86.5814 27.048 85.7814 26.52C84.9814 25.992 84.3414 25.232 83.8614 24.24C83.3974 23.232 83.1654 22.04 83.1654 20.664C83.1654 19.288 83.4774 18.056 84.1014 16.968C84.7414 15.88 85.5974 15.032 86.6694 14.424C87.7574 13.8 88.9494 13.488 90.2454 13.488C90.9654 13.488 91.5974 13.568 92.1414 13.728V10.224L89.5974 9.72V8.448L94.4694 7.944L95.0934 8.232ZM89.9334 14.88C89.2934 14.88 88.6854 15.08 88.1094 15.48C87.5334 15.88 87.0614 16.472 86.6934 17.256C86.3414 18.04 86.1654 18.992 86.1654 20.112C86.1654 21.2 86.3174 22.16 86.6214 22.992C86.9254 23.824 87.3414 24.464 87.8694 24.912C88.4134 25.36 89.0214 25.584 89.6934 25.584C90.1734 25.584 90.6294 25.52 91.0614 25.392C91.5094 25.264 91.8774 25.08 92.1654 24.84V15.624C91.6054 15.128 90.8614 14.88 89.9334 14.88ZM105.142 13.488C107.126 13.488 108.638 14.096 109.678 15.312C110.718 16.512 111.238 18.12 111.238 20.136C111.238 21.544 110.958 22.792 110.398 23.88C109.838 24.952 109.07 25.792 108.094 26.4C107.118 26.992 106.014 27.288 104.782 27.288C102.718 27.288 101.158 26.656 100.102 25.392C99.0455 24.112 98.5175 22.448 98.5175 20.4C98.5175 18.992 98.8135 17.768 99.4055 16.728C99.9975 15.688 100.79 14.888 101.782 14.328C102.79 13.768 103.91 13.488 105.142 13.488ZM104.902 14.928C102.742 14.928 101.662 16.64 101.662 20.064C101.662 21.632 101.934 22.976 102.478 24.096C103.022 25.216 103.83 25.784 104.902 25.8C106.07 25.816 106.894 25.352 107.374 24.408C107.87 23.464 108.118 22.112 108.118 20.352C108.118 18.736 107.854 17.432 107.326 16.44C106.814 15.432 106.006 14.928 104.902 14.928Z"/><g clip-path="url(#clip0_118_381)"><path fill="#FDC913" d="M18.9466 4.81909C10.5619 4.81909 3.76575 11.6152 3.76575 20C3.76575 26.0414 7.3039 31.2423 12.4126 33.6857L12.8877 24.5043C12.8877 24.5043 11.9939 24.211 11.7983 24.1155C9.90262 23.2805 8.52548 20.8218 8.52548 17.6308C8.52548 14.1487 11.2259 11.1494 13.8368 11.1247C13.8401 11.1247 13.8401 11.1247 13.8423 11.1247C13.8434 11.1247 13.8456 11.1247 13.8466 11.1247C16.458 11.1493 19.1586 14.1486 19.1586 17.6308C19.1586 20.8218 17.7797 23.2794 15.8879 24.1155C15.8731 24.122 14.7898 24.5154 14.7898 24.5154L15.3205 34.7239C16.4849 35.0105 17.6957 35.1787 18.9486 35.1787C20.6384 35.1787 22.2566 34.8909 23.7749 34.3822L24.2452 25.2844C23.006 25.0119 21.949 24.223 21.2866 23.2333C20.4659 22.004 21.9183 11.1236 21.9183 11.1236H22.8631V21.3337H23.8014V11.1247H24.8276V21.336H25.7614V11.1247H26.826V21.336H27.7631V11.1247H28.4882C28.4882 11.1247 29.9406 22.0051 29.1189 23.2344C28.4629 24.2144 27.4159 25.001 26.1921 25.2801C26.1702 25.2878 26.1503 25.2954 26.1503 25.2954L26.559 33.1211C31.081 30.492 34.1286 25.6075 34.1286 20.0001C34.1263 11.6153 27.3302 4.81909 18.9466 4.81909Z"/><path fill="#FDC913" d="M10.7477 16.0873C10.802 15.8659 10.8751 15.6555 10.8784 15.6517C10.9021 15.5688 10.8581 15.4842 10.768 15.4304C10.6823 15.3842 10.5779 15.4079 10.5296 15.482C10.5296 15.482 10.4258 15.6474 10.2752 15.8918C10.1528 16.1022 9.97153 16.4384 9.84785 16.857C9.74071 17.2238 9.61278 17.7117 9.5551 18.2576C9.53042 18.5444 9.52484 18.8031 9.53363 19.0695C9.5551 19.3732 9.60115 19.6331 9.68909 19.9303C9.98732 20.7779 10.217 21.5986 11.0459 22.4082C11.3079 22.6774 11.5771 22.8609 11.7715 22.996L11.8402 23.0443C11.882 23.0718 11.9221 23.0972 11.9616 23.1202C12.1248 23.2059 12.234 23.2366 12.2539 23.241C12.3351 23.2629 12.4187 23.2234 12.4532 23.1575C12.4856 23.0883 12.462 23.0015 12.3945 22.9466C12.3945 22.9466 12.2999 22.8643 12.1786 22.7104C12.0957 22.617 12.0056 22.4819 11.9007 22.3293C11.8266 22.2216 11.7392 22.0996 11.6579 21.9809C11.2541 21.3646 11.0213 20.5044 10.6993 19.6232C10.6362 19.432 10.5845 19.1843 10.5653 18.9739C10.5395 18.7311 10.5274 18.4971 10.5274 18.2801C10.5181 17.7759 10.5406 17.343 10.5845 16.992C10.635 16.596 10.6746 16.2988 10.7477 16.0873Z"/><path fill="#FDC913" d="M18.9464 2C9.02192 2 0.945312 10.0749 0.945312 20C0.945312 29.9228 9.02192 38 18.9464 38C28.8704 38 36.9454 29.9228 36.9454 20C36.9453 10.0749 28.8704 2 18.9464 2ZM18.9464 36.6575C9.7607 36.6575 2.28727 29.1846 2.28727 20C2.28727 10.8143 9.7607 3.34082 18.9464 3.34082C28.131 3.34082 35.605 10.8143 35.605 20C35.6049 29.1846 28.1309 36.6575 18.9464 36.6575Z"/></g><defs><clipPath id="clip0_118_381"><rect width="36" height="36" fill="#fff" transform="translate(0.945312 2)"/></clipPath></defs></svg>