<svg width="30" height="30" viewBox="0 0 30 30" fill="none" xmlns="http://www.w3.org/2000/svg">
<path fill-rule="evenodd" clip-rule="evenodd" d="M15 0C23.2842 0 29.9999 6.71572 29.9999 15C29.9999 23.2842 23.2842 29.9999 15 29.9999C6.71572 29.9999 0 23.2842 0 15C0 6.71572 6.71572 0 15 0ZM13.1182 9.00534C12.9003 8.83592 12.5852 8.85128 12.3849 9.05152L12.3387 9.10388C12.1693 9.32179 12.1846 9.63694 12.3849 9.83725L17.5471 15L12.3849 20.1627L12.3387 20.215C12.1693 20.433 12.1846 20.7481 12.3849 20.9483C12.6019 21.1653 12.9536 21.1653 13.1705 20.9483L18.7261 15.3928L18.7722 15.3404C18.9417 15.1225 18.9263 14.8074 18.7261 14.6071L13.1705 9.05152L13.1182 9.00534Z" fill="#222222"/>
</svg>
