<svg xmlns="http://www.w3.org/2000/svg" width="65" height="65" fill="none" viewBox="0 0 65 65"><g clip-path="url(#clip0_118_366)"><path fill="#FED843" d="M51.1523 4.18335H43.6523H36.1523C28.916 4.18335 22.9023 10.072 22.9023 17.3083C22.9023 23.9093 27.9255 29.3878 34.2773 30.2997V36.0583C34.2773 36.8163 34.7332 37.5012 35.4346 37.7905C36.1262 38.0791 36.9375 37.9244 37.4781 37.384L43.6523 31.2097L44.4287 30.4333H51.1523C58.3887 30.4333 64.4023 24.5447 64.4023 17.3083C64.4023 10.072 58.3887 4.18335 51.1523 4.18335Z"/><path fill="#FABE2C" d="M51.1523 30.4333C58.3887 30.4333 64.4023 24.5447 64.4023 17.3083C64.4023 10.072 58.3887 4.18335 51.1523 4.18335H43.6523V31.2097L44.4287 30.4333H51.1523Z"/><path fill="#FF641A" d="M48.1523 47.3083V54.8083C48.1523 58.0709 45.4886 60.4333 42.5536 60.4333C31.7523 60.4333 21.2148 55.3271 13.3773 47.5209C5.53984 39.7146 0.402344 29.2083 0.402344 18.4071C0.402344 15.3046 2.92609 12.8083 6.02734 12.8083H13.5273C14.3348 12.8083 15.0511 13.3246 15.3048 14.0896L19.0548 25.3133C19.2386 25.8633 19.1573 26.4658 18.8373 26.9471L15.6573 31.7183C16.8623 34.2458 18.9948 37.0084 21.4573 39.4408C23.9211 41.8721 26.7148 43.9733 29.2423 45.1783L34.0136 41.9983C34.4973 41.6796 35.0973 41.5958 35.6473 41.7808L46.8973 45.5308C47.6623 45.7846 48.1523 46.5009 48.1523 47.3083Z"/><path fill="#F03800" d="M48.151 47.3082V54.8082C48.151 58.0707 45.4872 60.4332 42.5522 60.4332C31.7509 60.4332 21.2134 55.3269 13.3759 47.5207L21.4559 39.4407C23.9197 41.8719 26.7134 43.9732 29.2409 45.1782L34.0122 41.9982C34.496 41.6794 35.0959 41.5957 35.6459 41.7807L46.8959 45.5307C47.6609 45.7844 48.151 46.5007 48.151 47.3082Z"/><path fill="#613D5C" d="M36.1532 19.1833C37.1887 19.1833 38.0282 18.3439 38.0282 17.3083C38.0282 16.2728 37.1887 15.4333 36.1532 15.4333C35.1177 15.4333 34.2782 16.2728 34.2782 17.3083C34.2782 18.3439 35.1177 19.1833 36.1532 19.1833Z"/><path fill="#613D5C" d="M43.6523 19.1829C44.6879 19.1829 45.5273 18.3434 45.5273 17.3079C45.5273 16.2723 44.6879 15.4329 43.6523 15.4329C42.6168 15.4329 41.7773 16.2723 41.7773 17.3079C41.7773 18.3434 42.6168 19.1829 43.6523 19.1829Z"/><path fill="#4B2746" d="M45.5273 17.3079C45.5273 16.2724 44.6878 15.4329 43.6523 15.4329V19.1829C44.6878 19.1829 45.5273 18.3434 45.5273 17.3079Z"/><path fill="#4B2746" d="M51.1532 19.1828C52.1887 19.1828 53.0282 18.3434 53.0282 17.3079C53.0282 16.2723 52.1887 15.4329 51.1532 15.4329C50.1177 15.4329 49.2782 16.2723 49.2782 17.3079C49.2782 18.3434 50.1177 19.1828 51.1532 19.1828Z"/></g><defs><clipPath id="clip0_118_366"><rect width="64" height="64" fill="#fff" transform="translate(0.402344 0.30835)"/></clipPath></defs></svg>