<svg xmlns="http://www.w3.org/2000/svg" width="36" height="36" fill="none" viewBox="0 0 36 36"><g clip-path="url(#clip0_125_3169)"><path fill="#F9D11F" d="M32.7692 25.119L32.2636 23.8974L26.4484 9.85136C26.3947 9.72205 26.2923 9.61968 26.163 9.56596L10.8827 3.23804C10.748 3.18187 10.5964 3.18433 10.4631 3.24501C10.3304 3.30519 10.2284 3.41804 10.1817 3.55628L9.23406 6.35654L0.110516 33.312L0.108055 33.3204C-0.14057 34.0563 0.0458986 34.8553 0.595321 35.4047C0.870242 35.6796 1.20739 35.8636 1.56781 35.9476C1.92831 36.0317 2.31214 36.0158 2.68002 35.8914L19.9714 30.0424L20.929 29.0529L25.3301 28.2296L29.6518 26.7678L32.4515 25.8206C32.5897 25.7738 32.7016 25.6719 32.7622 25.5386C32.8224 25.4059 32.8249 25.2543 32.7692 25.119Z"/><path fill="#FFA402" d="M32.4519 25.8206L29.6522 26.7678L25.3306 28.2296L20.9295 29.0529L19.9719 30.0424L2.68041 35.8915C2.31247 36.0158 1.92863 36.0317 1.56821 35.9477C1.20772 35.8636 0.870639 35.6797 0.595717 35.4047C0.0462949 34.8553 -0.140104 34.0563 0.108451 33.3204L0.110912 33.312C0.854748 33.9554 1.88834 34.1627 2.82955 33.845L32.2639 23.8974L32.7695 25.119C32.8252 25.2542 32.8228 25.4059 32.7626 25.5386C32.702 25.672 32.5902 25.7738 32.4519 25.8206Z"/><path fill="#FDEDA5" d="M32.4515 25.8206L29.6518 26.7678C29.5161 26.1905 29.3486 25.5834 29.1427 24.9519C28.0797 21.6923 25.994 17.7698 22.0319 13.8066C17.2995 9.07722 12.8109 7.20873 9.25397 6.37546L9.23407 6.35654L10.1817 3.55628C10.2285 3.41804 10.3304 3.30519 10.4631 3.24501C10.5964 3.18433 10.748 3.18187 10.8828 3.23804L26.163 9.56596C26.2923 9.61968 26.3947 9.72205 26.4484 9.85136L32.2636 23.8974L32.7692 25.119C32.8249 25.2542 32.8224 25.4059 32.7623 25.5386C32.7016 25.6719 32.5898 25.7738 32.4515 25.8206Z"/><path fill="#FBDF63" d="M32.4527 25.8206L29.653 26.7678C29.5172 26.1905 29.3497 25.5834 29.1439 24.9519L32.2648 23.8974L32.7704 25.119C32.8261 25.2542 32.8236 25.4059 32.7634 25.5386C32.7028 25.6719 32.5909 25.7738 32.4527 25.8206Z"/><path fill="#F79E60" d="M35.9548 24.5691C35.1713 20.8341 32.9687 15.1132 26.9263 9.07073C20.8829 3.03019 15.1612 0.828633 11.4253 0.0450013C10.327 -0.185202 9.24515 0.490009 8.96024 1.56248C8.95082 1.59877 8.94231 1.63505 8.93437 1.67189C8.81849 2.2223 8.92446 2.78367 9.23221 3.25448C9.31279 3.3788 9.40574 3.49263 9.50812 3.59508C9.79401 3.88097 10.1565 4.07833 10.5612 4.16292C13.7383 4.8292 18.6396 6.73741 23.9512 12.0461C29.2607 17.3567 31.1699 22.2571 31.8366 25.4328C31.9202 25.8335 32.1175 26.198 32.4064 26.4868L32.4069 26.4873C32.9116 26.992 33.63 27.2063 34.3276 27.0596C34.3644 27.0517 34.4017 27.0432 34.4375 27.0332C34.9406 26.9 35.3707 26.5902 35.6571 26.1517C35.9648 25.6808 36.0702 25.119 35.9548 24.5691Z"/><path fill="#D77D41" d="M35.9537 24.5691C35.1702 20.8341 32.9676 15.1132 26.9252 9.07073C20.8818 3.03019 15.1601 0.828634 11.4242 0.0450013C10.3259 -0.185202 9.24401 0.490009 8.95911 1.56248C9.26736 1.47994 9.59902 1.46651 9.93258 1.53661C13.6685 2.32024 19.3902 4.52179 25.4336 10.5623C31.476 16.6048 33.6786 22.3257 34.4622 26.0607C34.5308 26.3878 34.5214 26.7195 34.4363 27.0332C34.9395 26.9 35.3696 26.5902 35.656 26.1517C35.9637 25.6809 36.0691 25.119 35.9537 24.5691Z"/><path fill="#ED2061" d="M16.6958 13.9675C16.6957 13.0807 16.3504 12.247 15.7233 11.6198C15.7233 11.6197 15.7231 11.6196 15.723 11.6195C14.4281 10.3249 12.3211 10.3249 11.0262 11.6195C10.3989 12.2467 10.0535 13.0805 10.0535 13.9676C10.0535 14.8544 10.3988 15.6881 11.026 16.3153C11.026 16.3154 11.0262 16.3155 11.0262 16.3157C12.3212 17.6103 14.4282 17.6103 15.723 16.3157C16.3503 15.6884 16.6957 14.8545 16.6958 13.9675Z"/><path fill="#ED2061" d="M13.9344 22.0598C13.9344 22.0598 13.9343 22.0597 13.9342 22.0596C12.6393 20.765 10.5323 20.765 9.23743 22.0596C8.6101 22.6868 8.26459 23.5207 8.26459 24.4077C8.26459 25.2946 8.60996 26.1283 9.23708 26.7554C9.23715 26.7555 9.23729 26.7557 9.23743 26.7557C10.5324 28.0503 12.6394 28.0503 13.9342 26.7557C14.5616 26.1285 14.907 25.2947 14.907 24.4076C14.907 23.5208 14.5616 22.6871 13.9344 22.0598Z"/><path fill="#ED2061" d="M25.3314 28.2301L19.9681 30.0304L19.737 29.7992C19.3432 29.4054 19.0608 28.9301 18.9047 28.4121C18.8122 28.1048 18.7645 27.7816 18.7645 27.4514C18.7645 26.5645 19.11 25.7306 19.737 25.1036C20.3848 24.4568 21.2355 24.1331 22.0857 24.1331C22.9359 24.1331 23.7866 24.4568 24.4339 25.1041C24.7765 25.4467 25.034 25.8485 25.1981 26.285C25.389 26.7931 25.4526 27.347 25.3755 27.9064L25.3314 28.2301Z"/><path fill="#C71E54" d="M25.3314 28.2301L19.9681 30.0304L19.737 29.7993C19.3432 29.4054 19.0608 28.9301 18.9047 28.4121L25.1981 26.285C25.389 26.7932 25.4527 27.347 25.3756 27.9064L25.3314 28.2301Z"/><path fill="#68C044" d="M7.94567 28.5112C7.9122 28.2801 7.73073 28.0986 7.49968 28.0652C7.45806 28.0591 7.07907 28.0074 6.59539 28.0526C5.90232 28.1175 5.33265 28.3551 4.94783 28.7397C4.56301 29.1245 4.32529 29.6942 4.26046 30.3872C4.21518 30.8709 4.267 31.2497 4.27304 31.2913C4.28978 31.4068 4.34357 31.5099 4.42197 31.5884C4.50036 31.6669 4.60351 31.7206 4.71904 31.7374C4.76059 31.7434 5.13957 31.7951 5.62332 31.7498C6.31639 31.685 6.88606 31.4474 7.27088 31.0627C7.6557 30.678 7.89343 30.1084 7.95826 29.4154C8.00347 28.9316 7.95172 28.5528 7.94567 28.5112Z"/><path fill="#68C044" d="M20.0903 22.798C20.1057 22.7589 20.2426 22.4017 20.3088 21.9205C20.4038 21.231 20.3022 20.6221 20.0154 20.1598C19.7284 19.6974 19.2279 19.3362 18.5679 19.1151C18.1072 18.9607 17.7264 18.9247 17.6846 18.9211C17.4521 18.9012 17.234 19.0364 17.1486 19.2537C17.1332 19.2928 16.9964 19.6499 16.9301 20.1311C16.8352 20.8206 16.9367 21.4295 17.2235 21.8918C17.3041 22.0216 17.4014 22.1433 17.5144 22.2563C17.8039 22.5458 18.1962 22.7775 18.671 22.9365C19.1317 23.0909 19.5124 23.1269 19.5543 23.1305C19.7869 23.1505 20.005 23.0153 20.0903 22.798Z"/><path fill="#FDEDA5" d="M10.485 19.0749L9.68045 17.8206C9.52316 17.5751 9.19698 17.5042 8.95187 17.6614C8.70669 17.8187 8.63547 18.1449 8.79269 18.3901L9.59727 19.6444C9.61822 19.6771 9.64213 19.7067 9.6685 19.733C9.83999 19.9045 10.1134 19.9399 10.3258 19.8035C10.571 19.6463 10.6423 19.3201 10.485 19.0749Z"/><path fill="#FDEDA5" d="M21.738 17.6793L20.6062 16.7097C20.3851 16.5202 20.0522 16.5459 19.8627 16.7671C19.6822 16.9778 19.6969 17.2897 19.8898 17.4827C19.8995 17.4923 19.9095 17.5017 19.9201 17.5107L21.0518 18.4803C21.2729 18.6698 21.6059 18.6441 21.7954 18.4229C21.9849 18.2018 21.9597 17.8678 21.738 17.6793Z"/><path fill="#FDEDA5" d="M17.0582 27.7852L17.2001 26.4258C17.2303 26.1362 17.0199 25.8768 16.7303 25.8465C16.4406 25.8163 16.1813 26.0266 16.151 26.3163L16.0091 27.6758C15.992 27.8403 16.0524 27.9951 16.161 28.1036C16.2435 28.1862 16.3539 28.242 16.4789 28.255C16.7686 28.2852 17.0279 28.0749 17.0582 27.7852Z"/></g><defs><clipPath id="clip0_125_3169"><rect width="36" height="36" fill="#fff"/></clipPath></defs></svg>