<svg width="30" height="30" viewBox="0 0 30 30" fill="none" xmlns="http://www.w3.org/2000/svg">
<path fill-rule="evenodd" clip-rule="evenodd" d="M15 30C6.71569 30 -6.48499e-05 23.2842 -6.48499e-05 15C-6.48499e-05 6.71569 6.71569 -6.48499e-05 15 -6.48499e-05C23.2842 -6.48499e-05 30 6.71569 30 15C30 23.2842 23.2842 30 15 30ZM16.8817 20.9946C17.0996 21.164 17.4148 21.1487 17.6151 20.9484L17.6613 20.8961C17.8307 20.6782 17.8153 20.363 17.6151 20.1627L12.4528 15L17.6151 9.83723L17.6613 9.78487C17.8307 9.56695 17.8153 9.25181 17.6151 9.05157C17.3981 8.83458 17.0463 8.83458 16.8294 9.05157L11.2739 14.6071L11.2277 14.6595C11.0583 14.8774 11.0736 15.1926 11.2739 15.3929L16.8294 20.9484L16.8817 20.9946Z" fill="#222222"/>
</svg>
