<svg width="65" height="65" viewBox="0 0 65 65" fill="none" xmlns="http://www.w3.org/2000/svg">
<g clip-path="url(#clip0_118_288)">
<path d="M31.2368 53.4063H7.57106C5.28369 53.4063 3.42957 51.5521 3.42957 49.2648V45.123H35.2149L31.2368 53.4063Z" fill="#D3DCFB"/>
<path d="M57.2752 20.273V37.6726V49.2646H7.57107C5.28369 49.2646 3.42957 47.4103 3.42957 45.1229V20.273L32.4232 9.9187L57.2752 20.273Z" fill="#EBF5FC"/>
<path d="M10.7135 28.5564H8.57184C8.01959 28.5564 7.57184 28.1087 7.57184 27.5564V25.4148C7.57184 24.8625 8.01959 24.4148 8.57184 24.4148H10.7135C11.2657 24.4148 11.7135 24.8625 11.7135 25.4148V27.5564C11.7135 28.1087 11.2657 28.5564 10.7135 28.5564Z" fill="#3C58A0"/>
<path d="M18.9954 28.5564H16.8538C16.3015 28.5564 15.8538 28.1087 15.8538 27.5564V25.4148C15.8538 24.8625 16.3015 24.4148 16.8538 24.4148H18.9954C19.5476 24.4148 19.9954 24.8625 19.9954 25.4148V27.5564C19.9954 28.1087 19.5476 28.5564 18.9954 28.5564Z" fill="#3C58A0"/>
<path d="M27.2797 28.5564H25.1381C24.5859 28.5564 24.1381 28.1087 24.1381 27.5564V25.4148C24.1381 24.8625 24.5859 24.4148 25.1381 24.4148H27.2797C27.832 24.4148 28.2797 24.8625 28.2797 25.4148V27.5564C28.2797 28.1087 27.8321 28.5564 27.2797 28.5564Z" fill="#3C58A0"/>
<path d="M35.5616 28.5564H33.42C32.8677 28.5564 32.42 28.1087 32.42 27.5564V25.4148C32.42 24.8625 32.8677 24.4148 33.42 24.4148H35.5616C36.1139 24.4148 36.5616 24.8625 36.5616 25.4148V27.5564C36.5616 28.1087 36.1139 28.5564 35.5616 28.5564Z" fill="#3C58A0"/>
<path d="M43.8448 28.5564H41.7032C41.1509 28.5564 40.7032 28.1087 40.7032 27.5564V25.4148C40.7032 24.8625 41.1509 24.4148 41.7032 24.4148H43.8448C44.3971 24.4148 44.8448 24.8625 44.8448 25.4148V27.5564C44.8448 28.1087 44.3971 28.5564 43.8448 28.5564Z" fill="#3C58A0"/>
<path d="M52.1278 28.5564H49.9862C49.4339 28.5564 48.9862 28.1087 48.9862 27.5564V25.4148C48.9862 24.8625 49.4339 24.4148 49.9862 24.4148H52.1278C52.6801 24.4148 53.1278 24.8625 53.1278 25.4148V27.5564C53.1278 28.1087 52.6802 28.5564 52.1278 28.5564Z" fill="#3C58A0"/>
<path d="M10.7135 36.8396H8.57184C8.01959 36.8396 7.57184 36.3919 7.57184 35.8396V33.698C7.57184 33.1457 8.01959 32.698 8.57184 32.698H10.7135C11.2657 32.698 11.7135 33.1457 11.7135 33.698V35.8396C11.7135 36.392 11.2657 36.8396 10.7135 36.8396Z" fill="#3C58A0"/>
<path d="M18.9954 36.8396H16.8538C16.3015 36.8396 15.8538 36.3919 15.8538 35.8396V33.698C15.8538 33.1457 16.3015 32.698 16.8538 32.698H18.9954C19.5476 32.698 19.9954 33.1457 19.9954 33.698V35.8396C19.9954 36.392 19.5476 36.8396 18.9954 36.8396Z" fill="#3C58A0"/>
<path d="M27.2797 36.8396H25.1381C24.5859 36.8396 24.1381 36.3919 24.1381 35.8396V33.698C24.1381 33.1457 24.5859 32.698 25.1381 32.698H27.2797C27.832 32.698 28.2797 33.1457 28.2797 33.698V35.8396C28.2797 36.392 27.8321 36.8396 27.2797 36.8396Z" fill="#3C58A0"/>
<path d="M36.5616 36.8396V33.7334C36.5616 33.1615 36.098 32.698 35.5262 32.698H33.4554C32.8835 32.698 32.42 33.1616 32.42 33.7334V35.8042C32.42 36.3761 32.8836 36.8396 33.4554 36.8396H36.5616Z" fill="#3C58A0"/>
<path d="M10.7135 45.1231H8.57184C8.01959 45.1231 7.57184 44.6753 7.57184 44.1231V41.9814C7.57184 41.4292 8.01959 40.9814 8.57184 40.9814H10.7135C11.2657 40.9814 11.7135 41.4292 11.7135 41.9814V44.1231C11.7135 44.6753 11.2657 45.1231 10.7135 45.1231Z" fill="#3C58A0"/>
<path d="M18.9954 45.1231H16.8538C16.3015 45.1231 15.8538 44.6753 15.8538 44.1231V41.9814C15.8538 41.4292 16.3015 40.9814 16.8538 40.9814H18.9954C19.5476 40.9814 19.9954 41.4292 19.9954 41.9814V44.1231C19.9954 44.6753 19.5476 45.1231 18.9954 45.1231Z" fill="#3C58A0"/>
<path d="M27.2797 45.1231H25.1381C24.5859 45.1231 24.1381 44.6753 24.1381 44.1231V41.9814C24.1381 41.4292 24.5859 40.9814 25.1381 40.9814H27.2797C27.832 40.9814 28.2797 41.4292 28.2797 41.9814V44.1231C28.2797 44.6753 27.8321 45.1231 27.2797 45.1231Z" fill="#3C58A0"/>
<path d="M52.1291 24.4146H49.9875C49.8578 24.4146 49.7345 24.4401 49.6208 24.4849C49.9915 24.6313 50.2542 24.9919 50.2542 25.4147V27.5563C50.2542 27.979 49.9916 28.3397 49.6208 28.4859C49.7345 28.5308 49.858 28.5563 49.9875 28.5563H52.1291C52.6813 28.5563 53.1291 28.1085 53.1291 27.5563V25.4147C53.1291 24.8623 52.6815 24.4146 52.1291 24.4146Z" fill="#2A428C"/>
<path d="M43.8447 24.4146H41.7031C41.5735 24.4146 41.4501 24.4401 41.3365 24.4849C41.7071 24.6313 41.9698 24.9919 41.9698 25.4147V27.5563C41.9698 27.979 41.7072 28.3397 41.3365 28.4859C41.4501 28.5308 41.5735 28.5563 41.7031 28.5563H43.8447C44.397 28.5563 44.8447 28.1085 44.8447 27.5563V25.4147C44.8447 24.8623 44.397 24.4146 43.8447 24.4146Z" fill="#2A428C"/>
<path d="M35.5629 24.4146H33.4213C33.2917 24.4146 33.1683 24.4401 33.0547 24.4849C33.4253 24.6313 33.6881 24.9919 33.6881 25.4147V27.5563C33.6881 27.979 33.4254 28.3397 33.0547 28.4859C33.1683 28.5308 33.2917 28.5563 33.4213 28.5563H35.5629C36.1152 28.5563 36.5629 28.1085 36.5629 27.5563V25.4147C36.5629 24.8623 36.1152 24.4146 35.5629 24.4146Z" fill="#2A428C"/>
<path d="M27.281 24.4146H25.1394C25.0098 24.4146 24.8864 24.4401 24.7728 24.4849C25.1434 24.6313 25.4061 24.9919 25.4061 25.4147V27.5563C25.4061 27.979 25.1435 28.3397 24.7728 28.4859C24.8864 28.5308 25.0098 28.5563 25.1394 28.5563H27.281C27.8333 28.5563 28.281 28.1085 28.281 27.5563V25.4147C28.281 24.8623 27.8334 24.4146 27.281 24.4146Z" fill="#2A428C"/>
<path d="M18.9967 24.4146H16.855C16.7254 24.4146 16.602 24.4401 16.4884 24.4849C16.859 24.6313 17.1218 24.9919 17.1218 25.4147V27.5563C17.1218 27.979 16.8592 28.3397 16.4884 28.4859C16.602 28.5308 16.7254 28.5563 16.855 28.5563H18.9967C19.5489 28.5563 19.9967 28.1085 19.9967 27.5563V25.4147C19.9967 24.8623 19.5489 24.4146 18.9967 24.4146Z" fill="#2A428C"/>
<path d="M10.7147 24.4146H8.57311C8.44348 24.4146 8.32011 24.4401 8.20648 24.4849C8.57711 24.6313 8.83986 24.9919 8.83986 25.4147V27.5563C8.83986 27.979 8.57723 28.3397 8.20648 28.4859C8.32011 28.5308 8.44361 28.5563 8.57311 28.5563H10.7147C11.267 28.5563 11.7147 28.1085 11.7147 27.5563V25.4147C11.7147 24.8623 11.267 24.4146 10.7147 24.4146Z" fill="#2A428C"/>
<path d="M10.7147 32.698H8.57311C8.44348 32.698 8.32011 32.7235 8.20648 32.7684C8.57711 32.9147 8.83986 33.2754 8.83986 33.6981V35.8397C8.83986 36.2625 8.57723 36.6231 8.20648 36.7694C8.32011 36.8142 8.44361 36.8397 8.57311 36.8397H10.7147C11.267 36.8397 11.7147 36.392 11.7147 35.8397V33.698C11.7147 33.1457 11.267 32.698 10.7147 32.698Z" fill="#2A428C"/>
<path d="M10.7147 40.9814H8.57311C8.44348 40.9814 8.32011 41.0069 8.20648 41.0518C8.57711 41.1982 8.83986 41.5588 8.83986 41.9816V44.1231C8.83986 44.5458 8.57723 44.9064 8.20648 45.0527C8.32011 45.0976 8.44361 45.1231 8.57311 45.1231H10.7147C11.267 45.1231 11.7147 44.6753 11.7147 44.1231V41.9814C11.7147 41.4291 11.267 40.9814 10.7147 40.9814Z" fill="#2A428C"/>
<path d="M18.9967 32.698H16.855C16.7254 32.698 16.602 32.7235 16.4884 32.7684C16.859 32.9147 17.1218 33.2754 17.1218 33.6981V35.8397C17.1218 36.2625 16.8592 36.6231 16.4884 36.7694C16.602 36.8142 16.7254 36.8397 16.855 36.8397H18.9967C19.5489 36.8397 19.9967 36.392 19.9967 35.8397V33.698C19.9967 33.1457 19.5489 32.698 18.9967 32.698Z" fill="#2A428C"/>
<path d="M18.9967 40.9814H16.855C16.7254 40.9814 16.602 41.0069 16.4884 41.0518C16.859 41.1982 17.1218 41.5588 17.1218 41.9816V44.1231C17.1218 44.5458 16.8592 44.9064 16.4884 45.0527C16.602 45.0976 16.7254 45.1231 16.855 45.1231H18.9967C19.5489 45.1231 19.9967 44.6753 19.9967 44.1231V41.9814C19.9967 41.4291 19.5489 40.9814 18.9967 40.9814Z" fill="#2A428C"/>
<path d="M27.281 32.698H25.1394C25.0098 32.698 24.8864 32.7235 24.7728 32.7684C25.1434 32.9147 25.4061 33.2754 25.4061 33.6981V35.8397C25.4061 36.2625 25.1435 36.6231 24.7728 36.7694C24.8864 36.8142 25.0098 36.8397 25.1394 36.8397H27.281C27.8333 36.8397 28.281 36.392 28.281 35.8397V33.698C28.281 33.1457 27.8334 32.698 27.281 32.698Z" fill="#2A428C"/>
<path d="M36.5629 36.8396V33.698C36.5629 33.1457 36.1152 32.698 35.5629 32.698H33.4213C33.2917 32.698 33.1683 32.7235 33.0547 32.7684C33.4253 32.9147 33.6881 33.2754 33.6881 33.6981V35.8397C33.6881 36.2625 33.4254 36.6231 33.0547 36.7694C33.1683 36.8142 33.2917 36.8397 33.4213 36.8397H36.5629V36.8396Z" fill="#2A428C"/>
<path d="M27.281 40.9814H25.1394C25.0098 40.9814 24.8864 41.0069 24.7728 41.0518C25.1434 41.1982 25.4061 41.5588 25.4061 41.9816V44.1231C25.4061 44.5458 25.1435 44.9064 24.7728 45.0527C24.8864 45.0976 25.0098 45.1231 25.1394 45.1231H27.281C27.8333 45.1231 28.281 44.6753 28.281 44.1231V41.9814C28.281 41.4291 27.8334 40.9814 27.281 40.9814Z" fill="#2A428C"/>
<path d="M54.3991 19.0742V37.6726V49.2646H57.2761V37.6726V20.273L54.3991 19.0742Z" fill="#D3DCFB"/>
<path d="M57.2752 20.2729V9.9186C57.2752 7.63123 55.4209 5.7771 53.1337 5.7771H7.57107C5.28369 5.7771 3.42957 7.63135 3.42957 9.9186V20.2729H57.2752Z" fill="#FF4155"/>
<path d="M21.0306 9.40112C21.0306 10.8307 19.8718 11.9896 18.4421 11.9896C17.0125 11.9896 15.8536 10.8306 15.8536 9.40112V4.224C15.8536 2.79437 17.0125 1.6355 18.4421 1.6355C19.8718 1.6355 21.0306 2.79437 21.0306 4.224V9.40112Z" fill="#EBF5FC"/>
<path d="M44.8485 9.40112C44.8485 10.8307 43.6896 11.9896 42.26 11.9896C40.8304 11.9896 39.6715 10.8306 39.6715 9.40112V4.224C39.6715 2.79437 40.8304 1.6355 42.26 1.6355C43.6896 1.6355 44.8485 2.79437 44.8485 4.224V9.40112Z" fill="#EBF5FC"/>
<path d="M42.2581 1.6355C41.7268 1.6355 41.233 1.79612 40.822 2.07075C41.5166 2.535 41.9744 3.32575 41.9744 4.224V9.40112C41.9744 10.2992 41.5166 11.0901 40.822 11.5544C41.233 11.829 41.7266 11.9896 42.2581 11.9896C43.6878 11.9896 44.8466 10.8306 44.8466 9.40112V4.224C44.8468 2.79437 43.6878 1.6355 42.2581 1.6355Z" fill="#D3DCFB"/>
<path d="M18.4424 1.6355C17.911 1.6355 17.4173 1.79612 17.0063 2.07075C17.7009 2.535 18.1587 3.32575 18.1587 4.224V9.40112C18.1587 10.2992 17.7009 11.0901 17.0063 11.5544C17.4173 11.829 17.9109 11.9896 18.4424 11.9896C19.872 11.9896 21.0309 10.8306 21.0309 9.40112V4.224C21.0309 2.79437 19.872 1.6355 18.4424 1.6355Z" fill="#D3DCFB"/>
<path d="M53.1331 5.7771H50.2571C52.5444 5.7771 54.3986 7.63135 54.3986 9.9186V20.273H57.2747V9.91872C57.2747 7.63135 55.4204 5.7771 53.1331 5.7771Z" fill="#E80054"/>
<path d="M45.8819 63.7605C54.4596 63.7605 61.4132 56.8069 61.4132 48.2292C61.4132 39.6516 54.4596 32.698 45.8819 32.698C37.3042 32.698 30.3506 39.6516 30.3506 48.2292C30.3506 56.8069 37.3042 63.7605 45.8819 63.7605Z" fill="#4FABF7"/>
<path d="M45.8822 59.6188C52.1725 59.6188 57.2718 54.5195 57.2718 48.2292C57.2718 41.9389 52.1725 36.8396 45.8822 36.8396C39.5919 36.8396 34.4926 41.9389 34.4926 48.2292C34.4926 54.5195 39.5919 59.6188 45.8822 59.6188Z" fill="#EBF5FC"/>
<path d="M45.8819 32.698C45.3971 32.698 44.9179 32.7214 44.4444 32.7649C52.348 33.4904 58.5382 40.1364 58.5382 48.2292C58.5382 56.3221 52.348 62.9681 44.4444 63.6936C44.9179 63.7371 45.3971 63.7605 45.8819 63.7605C54.4595 63.7605 61.4132 56.8069 61.4132 48.2292C61.4132 39.6516 54.4597 32.698 45.8819 32.698Z" fill="#1886EA"/>
<path d="M45.883 36.8396C45.3964 36.8396 44.917 36.8703 44.4465 36.9295C50.0586 37.6357 54.3996 42.4255 54.3996 48.2291C54.3996 54.0327 50.0587 58.8225 44.4465 59.5287C44.917 59.588 45.3964 59.6186 45.883 59.6186C52.1732 59.6186 57.2726 54.5193 57.2726 48.229C57.2726 41.9386 52.1734 36.8396 45.883 36.8396Z" fill="#D3DCFB"/>
<path d="M45.8849 50.3002C47.0286 50.3002 47.9558 49.373 47.9558 48.2293C47.9558 47.0856 47.0286 46.1584 45.8849 46.1584C44.7412 46.1584 43.814 47.0856 43.814 48.2293C43.814 49.373 44.7412 50.3002 45.8849 50.3002Z" fill="#FFDD40"/>
<path d="M8.57263 29.4939H10.7144C11.7828 29.4939 12.6519 28.6248 12.6519 27.5564V25.4148C12.6519 24.3464 11.7828 23.4773 10.7144 23.4773H8.57263C7.50426 23.4773 6.63513 24.3464 6.63513 25.4148V27.5564C6.63513 28.6248 7.50426 29.4939 8.57263 29.4939ZM8.51013 25.4147C8.51013 25.3802 8.53826 25.3522 8.57263 25.3522H10.7144C10.7488 25.3522 10.7769 25.3802 10.7769 25.4147V27.5563C10.7769 27.5908 10.7488 27.6188 10.7144 27.6188H8.57263C8.53826 27.6188 8.51013 27.5908 8.51013 27.5563V25.4147Z" fill="black"/>
<path d="M16.8569 29.4939H18.9986C20.0669 29.4939 20.9361 28.6248 20.9361 27.5564V25.4148C20.9361 24.3464 20.0669 23.4773 18.9986 23.4773H16.8569C15.7886 23.4773 14.9194 24.3464 14.9194 25.4148V27.5564C14.9194 28.6248 15.7886 29.4939 16.8569 29.4939ZM16.7944 25.4147C16.7944 25.3802 16.8226 25.3522 16.8569 25.3522H18.9986C19.0329 25.3522 19.0611 25.3802 19.0611 25.4147V27.5563C19.0611 27.5908 19.0329 27.6188 18.9986 27.6188H16.8569C16.8226 27.6188 16.7944 27.5908 16.7944 27.5563V25.4147Z" fill="black"/>
<path d="M25.141 29.4939H27.2826C28.351 29.4939 29.2201 28.6248 29.2201 27.5564V25.4148C29.2201 24.3464 28.351 23.4773 27.2826 23.4773H25.141C24.0726 23.4773 23.2035 24.3464 23.2035 25.4148V27.5564C23.2035 28.6248 24.0726 29.4939 25.141 29.4939ZM25.0785 25.4147C25.0785 25.3802 25.1066 25.3522 25.141 25.3522H27.2826C27.317 25.3522 27.3451 25.3802 27.3451 25.4147V27.5563C27.3451 27.5908 27.317 27.6188 27.2826 27.6188H25.141C25.1066 27.6188 25.0785 27.5908 25.0785 27.5563V25.4147Z" fill="black"/>
<path d="M35.5648 29.4939C36.6332 29.4939 37.5023 28.6248 37.5023 27.5564V25.4148C37.5023 24.3464 36.6332 23.4773 35.5648 23.4773H33.4232C32.3548 23.4773 31.4857 24.3464 31.4857 25.4148V27.5564C31.4857 28.6248 32.3548 29.4939 33.4232 29.4939H35.5648ZM33.3607 27.5564V25.4148C33.3607 25.3803 33.3888 25.3523 33.4232 25.3523H35.5648C35.5992 25.3523 35.6273 25.3803 35.6273 25.4148V27.5564C35.6273 27.5909 35.5992 27.6189 35.5648 27.6189H33.4232C33.3888 27.6189 33.3607 27.5909 33.3607 27.5564Z" fill="black"/>
<path d="M43.8466 29.4939C44.915 29.4939 45.7841 28.6248 45.7841 27.5564V25.4148C45.7841 24.3464 44.915 23.4773 43.8466 23.4773H41.705C40.6366 23.4773 39.7675 24.3464 39.7675 25.4148V27.5564C39.7675 28.6248 40.6366 29.4939 41.705 29.4939H43.8466ZM41.6425 27.5564V25.4148C41.6425 25.3803 41.6706 25.3523 41.705 25.3523H43.8466C43.881 25.3523 43.9091 25.3803 43.9091 25.4148V27.5564C43.9091 27.5909 43.881 27.6189 43.8466 27.6189H41.705C41.6705 27.6189 41.6425 27.5909 41.6425 27.5564Z" fill="black"/>
<path d="M52.1307 29.4939C53.1991 29.4939 54.0682 28.6248 54.0682 27.5564V25.4148C54.0682 24.3464 53.1991 23.4773 52.1307 23.4773H49.9891C48.9207 23.4773 48.0516 24.3464 48.0516 25.4148V27.5564C48.0516 28.6248 48.9207 29.4939 49.9891 29.4939H52.1307ZM49.9266 27.5564V25.4148C49.9266 25.3803 49.9547 25.3523 49.9891 25.3523H52.1307C52.1651 25.3523 52.1932 25.3803 52.1932 25.4148V27.5564C52.1932 27.5909 52.1651 27.6189 52.1307 27.6189H49.9891C49.9547 27.6189 49.9266 27.5909 49.9266 27.5564Z" fill="black"/>
<path d="M6.63513 35.8396C6.63513 36.908 7.50426 37.7771 8.57263 37.7771H10.7144C11.7828 37.7771 12.6519 36.908 12.6519 35.8396V33.698C12.6519 32.6296 11.7828 31.7605 10.7144 31.7605H8.57263C7.50426 31.7605 6.63513 32.6296 6.63513 33.698V35.8396ZM8.51013 33.698C8.51013 33.6635 8.53826 33.6355 8.57263 33.6355H10.7144C10.7488 33.6355 10.7769 33.6635 10.7769 33.698V35.8396C10.7769 35.8741 10.7488 35.9021 10.7144 35.9021H8.57263C8.53826 35.9021 8.51013 35.8741 8.51013 35.8396V33.698Z" fill="black"/>
<path d="M14.9194 35.8396C14.9194 36.908 15.7886 37.7771 16.8569 37.7771H18.9986C20.0669 37.7771 20.9361 36.908 20.9361 35.8396V33.698C20.9361 32.6296 20.0669 31.7605 18.9986 31.7605H16.8569C15.7886 31.7605 14.9194 32.6296 14.9194 33.698V35.8396ZM16.7944 33.698C16.7944 33.6635 16.8226 33.6355 16.8569 33.6355H18.9986C19.0329 33.6355 19.0611 33.6635 19.0611 33.698V35.8396C19.0611 35.8741 19.0329 35.9021 18.9986 35.9021H16.8569C16.8226 35.9021 16.7944 35.8741 16.7944 35.8396V33.698Z" fill="black"/>
<path d="M23.2035 35.8396C23.2035 36.908 24.0726 37.7771 25.141 37.7771H27.2826C28.351 37.7771 29.2201 36.908 29.2201 35.8396V33.698C29.2201 32.6296 28.351 31.7605 27.2826 31.7605H25.141C24.0726 31.7605 23.2035 32.6296 23.2035 33.698V35.8396ZM25.0785 33.698C25.0785 33.6635 25.1066 33.6355 25.141 33.6355H27.2826C27.317 33.6355 27.3451 33.6635 27.3451 33.698V35.8396C27.3451 35.8741 27.317 35.9021 27.2826 35.9021H25.141C25.1066 35.9021 25.0785 35.8741 25.0785 35.8396V33.698Z" fill="black"/>
<path d="M6.63513 44.1231C6.63513 45.1914 7.50426 46.0606 8.57263 46.0606H10.7144C11.7828 46.0606 12.6519 45.1914 12.6519 44.1231V41.9814C12.6519 40.9131 11.7828 40.0439 10.7144 40.0439H8.57263C7.50426 40.0439 6.63513 40.9131 6.63513 41.9814V44.1231ZM8.51013 41.9814C8.51013 41.9469 8.53826 41.9189 8.57263 41.9189H10.7144C10.7488 41.9189 10.7769 41.9469 10.7769 41.9814V44.1231C10.7769 44.1576 10.7488 44.1856 10.7144 44.1856H8.57263C8.53826 44.1856 8.51013 44.1576 8.51013 44.1231V41.9814Z" fill="black"/>
<path d="M14.9194 44.1231C14.9194 45.1914 15.7886 46.0606 16.8569 46.0606H18.9986C20.0669 46.0606 20.9361 45.1914 20.9361 44.1231V41.9814C20.9361 40.9131 20.0669 40.0439 18.9986 40.0439H16.8569C15.7886 40.0439 14.9194 40.9131 14.9194 41.9814V44.1231ZM16.7944 41.9814C16.7944 41.9469 16.8226 41.9189 16.8569 41.9189H18.9986C19.0329 41.9189 19.0611 41.9469 19.0611 41.9814V44.1231C19.0611 44.1576 19.0329 44.1856 18.9986 44.1856H16.8569C16.8226 44.1856 16.7944 44.1576 16.7944 44.1231V41.9814Z" fill="black"/>
<path d="M23.2035 44.1231C23.2035 45.1914 24.0726 46.0606 25.141 46.0606H27.2826C28.351 46.0606 29.2201 45.1914 29.2201 44.1231V41.9814C29.2201 40.9131 28.351 40.0439 27.2826 40.0439H25.141C24.0726 40.0439 23.2035 40.9131 23.2035 41.9814V44.1231ZM25.0785 41.9814C25.0785 41.9469 25.1066 41.9189 25.141 41.9189H27.2826C27.317 41.9189 27.3451 41.9469 27.3451 41.9814V44.1231C27.3451 44.1576 27.317 44.1856 27.2826 44.1856H25.141C25.1066 44.1856 25.0785 44.1576 25.0785 44.1231V41.9814Z" fill="black"/>
<path d="M58.2136 37.3237V9.91875C58.2136 7.11812 55.9352 4.83975 53.1345 4.83975H45.7859V4.22412C45.7859 2.27975 44.2041 0.697998 42.2599 0.697998C40.3156 0.697998 38.7339 2.27975 38.7339 4.224V4.83962H21.97V4.224C21.97 2.27975 20.3882 0.697998 18.444 0.697998C16.4996 0.697998 14.9179 2.27975 14.9179 4.224V4.83962H7.57198C4.77136 4.83962 2.49286 7.11812 2.49286 9.91862V24.6105C2.49286 25.1282 2.91248 25.548 3.43036 25.548C3.94823 25.548 4.36786 25.1282 4.36786 24.6105V21.2105H56.3386V35.5134C53.493 33.1698 49.8502 31.7605 45.8845 31.7605C42.8256 31.7605 39.9595 32.5997 37.5025 34.0586V33.7334C37.5025 32.6455 36.6175 31.7605 35.5296 31.7605H33.4589C32.371 31.7605 31.486 32.6455 31.486 33.7334V35.8042C31.486 36.7987 32.2264 37.6215 33.1844 37.7557C30.8311 40.6042 29.4157 44.2545 29.4157 48.2292C29.4157 48.262 29.4167 48.2944 29.417 48.3271H7.57198C5.80523 48.3271 4.36786 46.8897 4.36786 45.1231V28.3605C4.36786 27.8427 3.94823 27.423 3.43036 27.423C2.91248 27.423 2.49286 27.8427 2.49286 28.3605V49.2647C2.49286 52.0654 4.77123 54.3437 7.57198 54.3437H9.84011C10.358 54.3437 10.7776 53.924 10.7776 53.4062C10.7776 52.8885 10.358 52.4687 9.84011 52.4687H7.57198C5.80523 52.4687 4.36786 51.0314 4.36786 49.2647V49.0604C5.24248 49.7735 6.35798 50.2021 7.57198 50.2021H29.5344C29.6271 50.9754 29.7736 51.7321 29.97 52.4689H13.59C13.0721 52.4689 12.6525 52.8886 12.6525 53.4064C12.6525 53.9241 13.0721 54.3439 13.59 54.3439H30.5934C33.0262 60.4059 38.9632 64.698 45.8845 64.698C54.9654 64.698 62.3532 57.3101 62.3532 48.2292C62.3532 44.0502 60.7879 40.2306 58.2136 37.3237ZM40.6089 4.224C40.6089 3.31362 41.3495 2.573 42.2599 2.573C43.1702 2.573 43.9109 3.31362 43.9109 4.224V9.40112C43.9109 10.3115 43.1702 11.0522 42.2599 11.0522C41.3495 11.0522 40.6089 10.3116 40.6089 9.40112V4.224ZM16.7929 4.224C16.7929 3.31362 17.5336 2.573 18.444 2.573C19.3544 2.573 20.095 3.31362 20.095 4.224V9.40112C20.095 10.3115 19.3544 11.0522 18.444 11.0522C17.5336 11.0522 16.7929 10.3116 16.7929 9.40112V4.224ZM7.57198 6.71462H14.9179V8.98125H13.7846C13.2667 8.98125 12.8471 9.401 12.8471 9.91875C12.8471 10.4365 13.2667 10.8562 13.7846 10.8562H15.2335C15.7887 12.0762 17.0185 12.9271 18.444 12.9271C19.8695 12.9271 21.0992 12.0764 21.6544 10.8562H23.1032C23.6211 10.8562 24.0407 10.4365 24.0407 9.91875C24.0407 9.401 23.6211 8.98125 23.1032 8.98125H21.97V6.71462H38.7339V8.98125H37.6005C37.0826 8.98125 36.663 9.401 36.663 9.91875C36.663 10.4365 37.0826 10.8562 37.6005 10.8562H39.0495C39.6047 12.0762 40.8345 12.9271 42.2599 12.9271C43.6852 12.9271 44.9151 12.0764 45.4702 10.8562H46.9192C47.4371 10.8562 47.8567 10.4365 47.8567 9.91875C47.8567 9.401 47.4371 8.98125 46.9192 8.98125H45.7859V6.71462H53.1345C54.9012 6.71462 56.3386 8.152 56.3386 9.91862V15.1937H4.36798V9.91875C4.36798 8.152 5.80536 6.71462 7.57198 6.71462ZM4.36798 19.3355V17.0689H56.3387V19.3355H4.36798ZM33.361 33.7334C33.361 33.6794 33.405 33.6355 33.4589 33.6355H35.5296C35.5836 33.6355 35.6275 33.6795 35.6275 33.7334V35.3545C35.4057 35.5315 35.1889 35.7141 34.9766 35.9021H33.4587C33.4047 35.9021 33.3609 35.8581 33.3609 35.8042V33.7334H33.361ZM45.8845 62.823C37.8375 62.823 31.2907 56.2762 31.2907 48.2292C31.2907 40.1822 37.8375 33.6355 45.8845 33.6355C53.9315 33.6355 60.4782 40.1822 60.4782 48.2292C60.4782 56.2762 53.9315 62.823 45.8845 62.823Z" fill="black"/>
<path d="M45.883 35.9021C39.0859 35.9021 33.556 41.432 33.556 48.2292C33.556 55.0265 39.0859 60.5563 45.883 60.5563C52.6803 60.5563 58.2102 55.0265 58.2102 48.2292C58.2102 41.432 52.6803 35.9021 45.883 35.9021ZM45.883 58.6813C40.1197 58.6813 35.431 53.9926 35.431 48.2292C35.431 42.4658 40.1198 37.7771 45.883 37.7771C51.6463 37.7771 56.3352 42.4658 56.3352 48.2292C56.3352 53.9926 51.6464 58.6813 45.883 58.6813Z" fill="black"/>
<path d="M51.0606 47.2918H48.7414C48.4436 46.3861 47.7268 45.6692 46.8211 45.3713V40.9814C46.8211 40.4637 46.4014 40.0439 45.8836 40.0439C45.3657 40.0439 44.9461 40.4637 44.9461 40.9814V45.3713C43.7451 45.7663 42.8753 46.8978 42.8753 48.2293C42.8753 49.8882 44.2248 51.2377 45.8836 51.2377C47.2151 51.2377 48.3466 50.3678 48.7414 49.1668H51.0606C51.5784 49.1668 51.9981 48.7471 51.9981 48.2293C51.9981 47.7116 51.5784 47.2918 51.0606 47.2918ZM45.8834 49.3627C45.2586 49.3627 44.7502 48.8543 44.7502 48.2293C44.7502 47.6043 45.2586 47.0959 45.8834 47.0959C46.5083 47.0959 47.0167 47.6043 47.0167 48.2293C47.0167 48.8543 46.5083 49.3627 45.8834 49.3627Z" fill="black"/>
</g>
<defs>
<clipPath id="clip0_118_288">
<rect width="64" height="64" fill="white" transform="translate(0.423828 0.697998)"/>
</clipPath>
</defs>
</svg>
