<svg width="37" height="36" viewBox="0 0 37 36" fill="none" xmlns="http://www.w3.org/2000/svg">
<g clip-path="url(#clip0_125_3250)">
<path d="M18.4814 36C28.4226 36 36.4814 27.9411 36.4814 18C36.4814 8.05887 28.4226 0 18.4814 0C8.54032 0 0.481445 8.05887 0.481445 18C0.481445 27.9411 8.54032 36 18.4814 36Z" fill="#FDD36E"/>
<path d="M28.6537 0.137984L22.2465 5.22052C22.0146 5.36129 21.854 5.59452 21.8052 5.86142L20.9403 10.5963H22.8702L23.5961 6.6222L29.6386 1.76094C30.0868 1.48904 30.2297 0.905234 29.9577 0.457062C29.6856 0.00874931 29.1018 -0.134055 28.6537 0.137984Z" fill="#A5E5F9"/>
<path d="M21.4575 7.76483L20.9403 10.5962H22.8701L23.3874 7.76483H21.4575Z" fill="#55CEED"/>
<path d="M23.9519 10.0778C21.6117 10.0778 22.3722 10.0778 19.9964 10.0778C19.7113 10.0778 19.4781 10.311 19.4781 10.5962V11.8182H24.4703V10.5962C24.4702 10.3111 24.237 10.0778 23.9519 10.0778Z" fill="#E8F7F9"/>
<path d="M22.4915 10.0778C21.6288 10.0778 20.9189 10.0778 19.9954 10.0778C19.7103 10.0778 19.4771 10.311 19.4771 10.5962V11.8182H21.9732V10.5962C21.9732 10.3111 22.2065 10.0778 22.4915 10.0778Z" fill="#C3F1FC"/>
<path d="M24.8212 11.3878H11.5777C10.5005 11.3878 9.61913 12.2692 9.61913 13.3464V14.7093H26.7799V13.3464C26.7799 12.2692 25.8985 11.3878 24.8212 11.3878Z" fill="#E8846C"/>
<path d="M16.7809 11.3878H11.5778C10.5005 11.3878 9.61913 12.2692 9.61913 13.3464V14.7093H14.8223V13.3464C14.8223 12.2692 15.7036 11.3878 16.7809 11.3878Z" fill="#DD745F"/>
<path d="M10.4724 34.123C12.8847 35.3236 15.6039 36 18.4814 36C21.1299 36 23.6446 35.4278 25.909 34.4006L27.1299 16.5292H9.27051L10.4724 34.123Z" fill="#E8F7F9"/>
<path d="M12.4104 34.948L11.2119 16.5291H9.27051L10.4724 34.1229C11.0984 34.4345 11.7456 34.7097 12.4104 34.948Z" fill="#C3F1FC"/>
<path d="M9.46633 19.3971H26.9341L27.1299 16.5302H9.27051L9.46633 19.3971Z" fill="#C3F1FC"/>
<path d="M11.3984 19.3961L11.2119 16.5292H9.27051L9.46633 19.3961H11.3984Z" fill="#A5E5F9"/>
<path d="M28.5395 15.5992C28.5395 16.6477 27.6896 17.4977 26.6411 17.4977H9.7589C8.7104 17.4977 7.86047 16.6477 7.86047 15.5992C7.86047 14.5507 8.7104 13.7008 9.7589 13.7008H26.6411C27.6896 13.7008 28.5395 14.5507 28.5395 15.5992Z" fill="#DD745F"/>
<path d="M13.1528 15.5992C13.1528 14.5507 14.0027 13.7008 15.0512 13.7008H9.7589C8.7104 13.7008 7.86047 14.5507 7.86047 15.5992C7.86047 16.6477 8.7104 17.4977 9.7589 17.4977H15.0512C14.0027 17.4977 13.1528 16.6477 13.1528 15.5992Z" fill="#CE604E"/>
<path d="M24.085 23.3572V26.3753C24.085 26.5903 23.9107 26.7646 23.6956 26.7646H12.3016C12.0865 26.7646 11.9122 26.5903 11.9122 26.3753V23.3572C11.9122 23.1421 12.0866 22.9678 12.3016 22.9678H23.6956C23.9106 22.9678 24.085 23.1421 24.085 23.3572Z" fill="#DB9E82"/>
<path d="M13.8107 26.3753V23.3572C13.8107 23.1421 13.985 22.9678 14.2001 22.9678H12.3016C12.0865 22.9678 11.9122 23.1421 11.9122 23.3572V26.3753C11.9122 26.5903 12.0866 26.7646 12.3016 26.7646H14.2001C13.985 26.7646 13.8107 26.5903 13.8107 26.3753Z" fill="#C9886F"/>
<path d="M18.1994 28.4076C20.1554 28.4076 21.741 26.822 21.741 24.866C21.741 22.91 20.1554 21.3243 18.1994 21.3243C16.2434 21.3243 14.6578 22.91 14.6578 24.866C14.6578 26.822 16.2434 28.4076 18.1994 28.4076Z" fill="#FDD36E"/>
<path d="M16.7778 25.6878C15.9643 24.2788 16.2299 22.5437 17.3169 21.437C17.0132 21.5154 16.7149 21.6347 16.43 21.7992C14.7361 22.7772 14.1557 24.9431 15.1337 26.637C16.1117 28.3309 18.2776 28.9112 19.9715 27.9333C20.2564 27.7688 20.5089 27.5701 20.7287 27.3463C19.2266 27.7343 17.5912 27.0968 16.7778 25.6878Z" fill="#FBB659"/>
</g>
<defs>
<clipPath id="clip0_125_3250">
<rect width="36" height="36" fill="white" transform="translate(0.481445)"/>
</clipPath>
</defs>
</svg>
